# Written by Marlamin's WoW Exporter. Original file: spells/frost_nova_area.m2
mtllib frost_nova_area.mtl
v -0.1400223 0.3209357 0.1400223
vt 0 0
vn 0.000000000000 1.000000000000 0.000000000000
v 0.1400223 0.3209357 0.1400223
vt 0 -1
vn 0.000000000000 1.000000000000 0.000000000000
v -0.1400223 0.3209357 -0.1400223
vt 1 0
vn 0.000000000000 1.000000000000 0.000000000000
v 0.1400223 0.3209357 -0.1400223
vt 1 -1
vn 0.000000000000 1.000000000000 0.000000000000
g frost_nova_area
o frost_nova_area0
usemtl shockwave1blue
s 1
f 1/1/1 2/2/2 3/3/3
f 4/4/4 3/3/3 2/2/2
